<svg xmlns="http://www.w3.org/2000/svg" width="1640" height="1640" viewBox="0 0 41 41" role="img" aria-label="QR code for https://vivien.lv/poster/en/bastille-day">
<title>QR code for https://vivien.lv/poster/en/bastille-day</title>
<desc>Transparent Art Deco dotted QR code for https://vivien.lv/poster/en/bastille-day</desc>
<g shape-rendering="geometricPrecision">
<circle cx="12.5" cy="4.5" r="0.43" fill="#F3E9DC"/>
<circle cx="14.5" cy="4.5" r="0.43" fill="#F3E9DC"/>
<circle cx="21.5" cy="4.5" r="0.43" fill="#F3E9DC"/>
<circle cx="23.5" cy="4.5" r="0.43" fill="#F3E9DC"/>
<circle cx="25.5" cy="4.5" r="0.43" fill="#F3E9DC"/>
<circle cx="26.5" cy="4.5" r="0.43" fill="#F3E9DC"/>
<circle cx="27.5" cy="4.5" r="0.43" fill="#F3E9DC"/>
<circle cx="15.5" cy="5.5" r="0.43" fill="#F3E9DC"/>
<circle cx="17.5" cy="5.5" r="0.43" fill="#F3E9DC"/>
<circle cx="19.5" cy="5.5" r="0.43" fill="#F3E9DC"/>
<circle cx="20.5" cy="5.5" r="0.43" fill="#F3E9DC"/>
<circle cx="22.5" cy="5.5" r="0.43" fill="#F3E9DC"/>
<circle cx="24.5" cy="5.5" r="0.43" fill="#F3E9DC"/>
<circle cx="25.5" cy="5.5" r="0.43" fill="#F3E9DC"/>
<circle cx="27.5" cy="5.5" r="0.43" fill="#F3E9DC"/>
<circle cx="28.5" cy="5.5" r="0.43" fill="#F3E9DC"/>
<circle cx="12.5" cy="6.5" r="0.43" fill="#F3E9DC"/>
<circle cx="18.5" cy="6.5" r="0.43" fill="#F3E9DC"/>
<circle cx="22.5" cy="6.5" r="0.43" fill="#F3E9DC"/>
<circle cx="23.5" cy="6.5" r="0.43" fill="#F3E9DC"/>
<circle cx="27.5" cy="6.5" r="0.43" fill="#F3E9DC"/>
<circle cx="12.5" cy="7.5" r="0.43" fill="#F3E9DC"/>
<circle cx="13.5" cy="7.5" r="0.43" fill="#F3E9DC"/>
<circle cx="15.5" cy="7.5" r="0.43" fill="#F3E9DC"/>
<circle cx="17.5" cy="7.5" r="0.43" fill="#F3E9DC"/>
<circle cx="18.5" cy="7.5" r="0.43" fill="#F3E9DC"/>
<circle cx="19.5" cy="7.5" r="0.43" fill="#F3E9DC"/>
<circle cx="20.5" cy="7.5" r="0.43" fill="#F3E9DC"/>
<circle cx="21.5" cy="7.5" r="0.43" fill="#F3E9DC"/>
<circle cx="22.5" cy="7.5" r="0.43" fill="#F3E9DC"/>
<circle cx="23.5" cy="7.5" r="0.43" fill="#F3E9DC"/>
<circle cx="24.5" cy="7.5" r="0.43" fill="#F3E9DC"/>
<circle cx="26.5" cy="7.5" r="0.43" fill="#F3E9DC"/>
<circle cx="27.5" cy="7.5" r="0.43" fill="#F3E9DC"/>
<circle cx="13.5" cy="8.5" r="0.43" fill="#F3E9DC"/>
<circle cx="16.5" cy="8.5" r="0.43" fill="#F3E9DC"/>
<circle cx="17.5" cy="8.5" r="0.43" fill="#F3E9DC"/>
<circle cx="18.5" cy="8.5" r="0.43" fill="#F3E9DC"/>
<circle cx="19.5" cy="8.5" r="0.43" fill="#F3E9DC"/>
<circle cx="22.5" cy="8.5" r="0.43" fill="#F3E9DC"/>
<circle cx="23.5" cy="8.5" r="0.43" fill="#F3E9DC"/>
<circle cx="24.5" cy="8.5" r="0.43" fill="#F3E9DC"/>
<circle cx="25.5" cy="8.5" r="0.43" fill="#F3E9DC"/>
<circle cx="27.5" cy="8.5" r="0.43" fill="#F3E9DC"/>
<circle cx="28.5" cy="8.5" r="0.43" fill="#F3E9DC"/>
<circle cx="12.5" cy="9.5" r="0.43" fill="#F3E9DC"/>
<circle cx="13.5" cy="9.5" r="0.43" fill="#F3E9DC"/>
<circle cx="17.5" cy="9.5" r="0.43" fill="#F3E9DC"/>
<circle cx="18.5" cy="9.5" r="0.43" fill="#F3E9DC"/>
<circle cx="20.5" cy="9.5" r="0.43" fill="#F3E9DC"/>
<circle cx="22.5" cy="9.5" r="0.43" fill="#F3E9DC"/>
<circle cx="23.5" cy="9.5" r="0.43" fill="#F3E9DC"/>
<circle cx="26.5" cy="9.5" r="0.43" fill="#F3E9DC"/>
<circle cx="28.5" cy="9.5" r="0.43" fill="#F3E9DC"/>
<circle cx="12.5" cy="10.5" r="0.43" fill="#F3E9DC"/>
<circle cx="14.5" cy="10.5" r="0.43" fill="#F3E9DC"/>
<circle cx="16.5" cy="10.5" r="0.43" fill="#F3E9DC"/>
<circle cx="18.5" cy="10.5" r="0.43" fill="#F3E9DC"/>
<circle cx="20.5" cy="10.5" r="0.43" fill="#F3E9DC"/>
<circle cx="22.5" cy="10.5" r="0.43" fill="#F3E9DC"/>
<circle cx="24.5" cy="10.5" r="0.43" fill="#F3E9DC"/>
<circle cx="26.5" cy="10.5" r="0.43" fill="#F3E9DC"/>
<circle cx="28.5" cy="10.5" r="0.43" fill="#F3E9DC"/>
<circle cx="12.5" cy="11.5" r="0.43" fill="#F3E9DC"/>
<circle cx="13.5" cy="11.5" r="0.43" fill="#F3E9DC"/>
<circle cx="16.5" cy="11.5" r="0.43" fill="#F3E9DC"/>
<circle cx="18.5" cy="11.5" r="0.43" fill="#F3E9DC"/>
<circle cx="20.5" cy="11.5" r="0.43" fill="#F3E9DC"/>
<circle cx="21.5" cy="11.5" r="0.43" fill="#F3E9DC"/>
<circle cx="25.5" cy="11.5" r="0.43" fill="#F3E9DC"/>
<circle cx="26.5" cy="11.5" r="0.43" fill="#F3E9DC"/>
<circle cx="27.5" cy="11.5" r="0.43" fill="#F3E9DC"/>
<circle cx="28.5" cy="11.5" r="0.43" fill="#F3E9DC"/>
<circle cx="5.5" cy="12.5" r="0.43" fill="#F3E9DC"/>
<circle cx="7.5" cy="12.5" r="0.43" fill="#F3E9DC"/>
<circle cx="9.5" cy="12.5" r="0.43" fill="#F3E9DC"/>
<circle cx="10.5" cy="12.5" r="0.43" fill="#F3E9DC"/>
<circle cx="11.5" cy="12.5" r="0.43" fill="#F3E9DC"/>
<circle cx="12.5" cy="12.5" r="0.43" fill="#F3E9DC"/>
<circle cx="14.5" cy="12.5" r="0.43" fill="#F3E9DC"/>
<circle cx="15.5" cy="12.5" r="0.43" fill="#F3E9DC"/>
<circle cx="16.5" cy="12.5" r="0.43" fill="#F3E9DC"/>
<circle cx="17.5" cy="12.5" r="0.43" fill="#F3E9DC"/>
<circle cx="19.5" cy="12.5" r="0.43" fill="#F3E9DC"/>
<circle cx="20.5" cy="12.5" r="0.43" fill="#F3E9DC"/>
<circle cx="24.5" cy="12.5" r="0.43" fill="#F3E9DC"/>
<circle cx="25.5" cy="12.5" r="0.43" fill="#F3E9DC"/>
<circle cx="26.5" cy="12.5" r="0.43" fill="#F3E9DC"/>
<circle cx="27.5" cy="12.5" r="0.43" fill="#F3E9DC"/>
<circle cx="28.5" cy="12.5" r="0.43" fill="#F3E9DC"/>
<circle cx="29.5" cy="12.5" r="0.43" fill="#F3E9DC"/>
<circle cx="30.5" cy="12.5" r="0.43" fill="#F3E9DC"/>
<circle cx="31.5" cy="12.5" r="0.43" fill="#F3E9DC"/>
<circle cx="33.5" cy="12.5" r="0.43" fill="#F3E9DC"/>
<circle cx="34.5" cy="12.5" r="0.43" fill="#F3E9DC"/>
<circle cx="36.5" cy="12.5" r="0.43" fill="#F3E9DC"/>
<circle cx="4.5" cy="13.5" r="0.43" fill="#F3E9DC"/>
<circle cx="6.5" cy="13.5" r="0.43" fill="#F3E9DC"/>
<circle cx="8.5" cy="13.5" r="0.43" fill="#F3E9DC"/>
<circle cx="11.5" cy="13.5" r="0.43" fill="#F3E9DC"/>
<circle cx="14.5" cy="13.5" r="0.43" fill="#F3E9DC"/>
<circle cx="15.5" cy="13.5" r="0.43" fill="#F3E9DC"/>
<circle cx="16.5" cy="13.5" r="0.43" fill="#F3E9DC"/>
<circle cx="17.5" cy="13.5" r="0.43" fill="#F3E9DC"/>
<circle cx="18.5" cy="13.5" r="0.43" fill="#F3E9DC"/>
<circle cx="19.5" cy="13.5" r="0.43" fill="#F3E9DC"/>
<circle cx="21.5" cy="13.5" r="0.43" fill="#F3E9DC"/>
<circle cx="24.5" cy="13.5" r="0.43" fill="#F3E9DC"/>
<circle cx="25.5" cy="13.5" r="0.43" fill="#F3E9DC"/>
<circle cx="28.5" cy="13.5" r="0.43" fill="#F3E9DC"/>
<circle cx="29.5" cy="13.5" r="0.43" fill="#F3E9DC"/>
<circle cx="30.5" cy="13.5" r="0.43" fill="#F3E9DC"/>
<circle cx="31.5" cy="13.5" r="0.43" fill="#F3E9DC"/>
<circle cx="35.5" cy="13.5" r="0.43" fill="#F3E9DC"/>
<circle cx="36.5" cy="13.5" r="0.43" fill="#F3E9DC"/>
<circle cx="4.5" cy="14.5" r="0.43" fill="#F3E9DC"/>
<circle cx="6.5" cy="14.5" r="0.43" fill="#F3E9DC"/>
<circle cx="7.5" cy="14.5" r="0.43" fill="#F3E9DC"/>
<circle cx="8.5" cy="14.5" r="0.43" fill="#F3E9DC"/>
<circle cx="10.5" cy="14.5" r="0.43" fill="#F3E9DC"/>
<circle cx="11.5" cy="14.5" r="0.43" fill="#F3E9DC"/>
<circle cx="12.5" cy="14.5" r="0.43" fill="#F3E9DC"/>
<circle cx="15.5" cy="14.5" r="0.43" fill="#F3E9DC"/>
<circle cx="16.5" cy="14.5" r="0.43" fill="#F3E9DC"/>
<circle cx="18.5" cy="14.5" r="0.43" fill="#F3E9DC"/>
<circle cx="19.5" cy="14.5" r="0.43" fill="#F3E9DC"/>
<circle cx="20.5" cy="14.5" r="0.43" fill="#F3E9DC"/>
<circle cx="22.5" cy="14.5" r="0.43" fill="#F3E9DC"/>
<circle cx="23.5" cy="14.5" r="0.43" fill="#F3E9DC"/>
<circle cx="26.5" cy="14.5" r="0.43" fill="#F3E9DC"/>
<circle cx="29.5" cy="14.5" r="0.43" fill="#F3E9DC"/>
<circle cx="30.5" cy="14.5" r="0.43" fill="#F3E9DC"/>
<circle cx="31.5" cy="14.5" r="0.43" fill="#F3E9DC"/>
<circle cx="32.5" cy="14.5" r="0.43" fill="#F3E9DC"/>
<circle cx="34.5" cy="14.5" r="0.43" fill="#F3E9DC"/>
<circle cx="36.5" cy="14.5" r="0.43" fill="#F3E9DC"/>
<circle cx="4.5" cy="15.5" r="0.43" fill="#F3E9DC"/>
<circle cx="6.5" cy="15.5" r="0.43" fill="#F3E9DC"/>
<circle cx="8.5" cy="15.5" r="0.43" fill="#F3E9DC"/>
<circle cx="9.5" cy="15.5" r="0.43" fill="#F3E9DC"/>
<circle cx="11.5" cy="15.5" r="0.43" fill="#F3E9DC"/>
<circle cx="15.5" cy="15.5" r="0.43" fill="#F3E9DC"/>
<circle cx="18.5" cy="15.5" r="0.43" fill="#F3E9DC"/>
<circle cx="20.5" cy="15.5" r="0.43" fill="#F3E9DC"/>
<circle cx="22.5" cy="15.5" r="0.43" fill="#F3E9DC"/>
<circle cx="25.5" cy="15.5" r="0.43" fill="#F3E9DC"/>
<circle cx="32.5" cy="15.5" r="0.43" fill="#F3E9DC"/>
<circle cx="33.5" cy="15.5" r="0.43" fill="#F3E9DC"/>
<circle cx="5.5" cy="16.5" r="0.43" fill="#F3E9DC"/>
<circle cx="7.5" cy="16.5" r="0.43" fill="#F3E9DC"/>
<circle cx="8.5" cy="16.5" r="0.43" fill="#F3E9DC"/>
<circle cx="10.5" cy="16.5" r="0.43" fill="#F3E9DC"/>
<circle cx="11.5" cy="16.5" r="0.43" fill="#F3E9DC"/>
<circle cx="14.5" cy="16.5" r="0.43" fill="#F3E9DC"/>
<circle cx="15.5" cy="16.5" r="0.43" fill="#F3E9DC"/>
<circle cx="19.5" cy="16.5" r="0.43" fill="#F3E9DC"/>
<circle cx="22.5" cy="16.5" r="0.43" fill="#F3E9DC"/>
<circle cx="23.5" cy="16.5" r="0.43" fill="#F3E9DC"/>
<circle cx="24.5" cy="16.5" r="0.43" fill="#F3E9DC"/>
<circle cx="25.5" cy="16.5" r="0.43" fill="#F3E9DC"/>
<circle cx="27.5" cy="16.5" r="0.43" fill="#F3E9DC"/>
<circle cx="28.5" cy="16.5" r="0.43" fill="#F3E9DC"/>
<circle cx="29.5" cy="16.5" r="0.43" fill="#F3E9DC"/>
<circle cx="30.5" cy="16.5" r="0.43" fill="#F3E9DC"/>
<circle cx="31.5" cy="16.5" r="0.43" fill="#F3E9DC"/>
<circle cx="33.5" cy="16.5" r="0.43" fill="#F3E9DC"/>
<circle cx="35.5" cy="16.5" r="0.43" fill="#F3E9DC"/>
<circle cx="4.5" cy="17.5" r="0.43" fill="#F3E9DC"/>
<circle cx="5.5" cy="17.5" r="0.43" fill="#F3E9DC"/>
<circle cx="7.5" cy="17.5" r="0.43" fill="#F3E9DC"/>
<circle cx="8.5" cy="17.5" r="0.43" fill="#F3E9DC"/>
<circle cx="12.5" cy="17.5" r="0.43" fill="#F3E9DC"/>
<circle cx="14.5" cy="17.5" r="0.43" fill="#F3E9DC"/>
<circle cx="16.5" cy="17.5" r="0.43" fill="#F3E9DC"/>
<circle cx="17.5" cy="17.5" r="0.43" fill="#F3E9DC"/>
<circle cx="18.5" cy="17.5" r="0.43" fill="#F3E9DC"/>
<circle cx="20.5" cy="17.5" r="0.43" fill="#F3E9DC"/>
<circle cx="22.5" cy="17.5" r="0.43" fill="#F3E9DC"/>
<circle cx="24.5" cy="17.5" r="0.43" fill="#F3E9DC"/>
<circle cx="26.5" cy="17.5" r="0.43" fill="#F3E9DC"/>
<circle cx="28.5" cy="17.5" r="0.43" fill="#F3E9DC"/>
<circle cx="29.5" cy="17.5" r="0.43" fill="#F3E9DC"/>
<circle cx="30.5" cy="17.5" r="0.43" fill="#F3E9DC"/>
<circle cx="32.5" cy="17.5" r="0.43" fill="#F3E9DC"/>
<circle cx="35.5" cy="17.5" r="0.43" fill="#F3E9DC"/>
<circle cx="36.5" cy="17.5" r="0.43" fill="#F3E9DC"/>
<circle cx="4.5" cy="18.5" r="0.43" fill="#F3E9DC"/>
<circle cx="6.5" cy="18.5" r="0.43" fill="#F3E9DC"/>
<circle cx="7.5" cy="18.5" r="0.43" fill="#F3E9DC"/>
<circle cx="9.5" cy="18.5" r="0.43" fill="#F3E9DC"/>
<circle cx="10.5" cy="18.5" r="0.43" fill="#F3E9DC"/>
<circle cx="12.5" cy="18.5" r="0.43" fill="#F3E9DC"/>
<circle cx="17.5" cy="18.5" r="0.43" fill="#F3E9DC"/>
<circle cx="18.5" cy="18.5" r="0.43" fill="#F3E9DC"/>
<circle cx="23.5" cy="18.5" r="0.43" fill="#F3E9DC"/>
<circle cx="25.5" cy="18.5" r="0.43" fill="#F3E9DC"/>
<circle cx="27.5" cy="18.5" r="0.43" fill="#F3E9DC"/>
<circle cx="28.5" cy="18.5" r="0.43" fill="#F3E9DC"/>
<circle cx="29.5" cy="18.5" r="0.43" fill="#F3E9DC"/>
<circle cx="30.5" cy="18.5" r="0.43" fill="#F3E9DC"/>
<circle cx="31.5" cy="18.5" r="0.43" fill="#F3E9DC"/>
<circle cx="32.5" cy="18.5" r="0.43" fill="#F3E9DC"/>
<circle cx="34.5" cy="18.5" r="0.43" fill="#F3E9DC"/>
<circle cx="35.5" cy="18.5" r="0.43" fill="#F3E9DC"/>
<circle cx="4.5" cy="19.5" r="0.43" fill="#F3E9DC"/>
<circle cx="8.5" cy="19.5" r="0.43" fill="#F3E9DC"/>
<circle cx="9.5" cy="19.5" r="0.43" fill="#F3E9DC"/>
<circle cx="11.5" cy="19.5" r="0.43" fill="#F3E9DC"/>
<circle cx="15.5" cy="19.5" r="0.43" fill="#F3E9DC"/>
<circle cx="16.5" cy="19.5" r="0.43" fill="#F3E9DC"/>
<circle cx="18.5" cy="19.5" r="0.43" fill="#F3E9DC"/>
<circle cx="22.5" cy="19.5" r="0.43" fill="#F3E9DC"/>
<circle cx="24.5" cy="19.5" r="0.43" fill="#F3E9DC"/>
<circle cx="25.5" cy="19.5" r="0.43" fill="#F3E9DC"/>
<circle cx="27.5" cy="19.5" r="0.43" fill="#F3E9DC"/>
<circle cx="28.5" cy="19.5" r="0.43" fill="#F3E9DC"/>
<circle cx="30.5" cy="19.5" r="0.43" fill="#F3E9DC"/>
<circle cx="31.5" cy="19.5" r="0.43" fill="#F3E9DC"/>
<circle cx="35.5" cy="19.5" r="0.43" fill="#F3E9DC"/>
<circle cx="4.5" cy="20.5" r="0.43" fill="#F3E9DC"/>
<circle cx="6.5" cy="20.5" r="0.43" fill="#F3E9DC"/>
<circle cx="8.5" cy="20.5" r="0.43" fill="#F3E9DC"/>
<circle cx="10.5" cy="20.5" r="0.43" fill="#F3E9DC"/>
<circle cx="11.5" cy="20.5" r="0.43" fill="#F3E9DC"/>
<circle cx="12.5" cy="20.5" r="0.43" fill="#F3E9DC"/>
<circle cx="13.5" cy="20.5" r="0.43" fill="#F3E9DC"/>
<circle cx="14.5" cy="20.5" r="0.43" fill="#F3E9DC"/>
<circle cx="17.5" cy="20.5" r="0.43" fill="#F3E9DC"/>
<circle cx="18.5" cy="20.5" r="0.43" fill="#F3E9DC"/>
<circle cx="19.5" cy="20.5" r="0.43" fill="#F3E9DC"/>
<circle cx="21.5" cy="20.5" r="0.43" fill="#F3E9DC"/>
<circle cx="24.5" cy="20.5" r="0.43" fill="#F3E9DC"/>
<circle cx="25.5" cy="20.5" r="0.43" fill="#F3E9DC"/>
<circle cx="26.5" cy="20.5" r="0.43" fill="#F3E9DC"/>
<circle cx="27.5" cy="20.5" r="0.43" fill="#F3E9DC"/>
<circle cx="28.5" cy="20.5" r="0.43" fill="#F3E9DC"/>
<circle cx="30.5" cy="20.5" r="0.43" fill="#F3E9DC"/>
<circle cx="32.5" cy="20.5" r="0.43" fill="#F3E9DC"/>
<circle cx="35.5" cy="20.5" r="0.43" fill="#F3E9DC"/>
<circle cx="7.5" cy="21.5" r="0.43" fill="#F3E9DC"/>
<circle cx="8.5" cy="21.5" r="0.43" fill="#F3E9DC"/>
<circle cx="9.5" cy="21.5" r="0.43" fill="#F3E9DC"/>
<circle cx="13.5" cy="21.5" r="0.43" fill="#F3E9DC"/>
<circle cx="16.5" cy="21.5" r="0.43" fill="#F3E9DC"/>
<circle cx="18.5" cy="21.5" r="0.43" fill="#F3E9DC"/>
<circle cx="19.5" cy="21.5" r="0.43" fill="#F3E9DC"/>
<circle cx="20.5" cy="21.5" r="0.43" fill="#F3E9DC"/>
<circle cx="25.5" cy="21.5" r="0.43" fill="#F3E9DC"/>
<circle cx="27.5" cy="21.5" r="0.43" fill="#F3E9DC"/>
<circle cx="28.5" cy="21.5" r="0.43" fill="#F3E9DC"/>
<circle cx="31.5" cy="21.5" r="0.43" fill="#F3E9DC"/>
<circle cx="33.5" cy="21.5" r="0.43" fill="#F3E9DC"/>
<circle cx="35.5" cy="21.5" r="0.43" fill="#F3E9DC"/>
<circle cx="4.5" cy="22.5" r="0.43" fill="#F3E9DC"/>
<circle cx="5.5" cy="22.5" r="0.43" fill="#F3E9DC"/>
<circle cx="7.5" cy="22.5" r="0.43" fill="#F3E9DC"/>
<circle cx="10.5" cy="22.5" r="0.43" fill="#F3E9DC"/>
<circle cx="11.5" cy="22.5" r="0.43" fill="#F3E9DC"/>
<circle cx="13.5" cy="22.5" r="0.43" fill="#F3E9DC"/>
<circle cx="16.5" cy="22.5" r="0.43" fill="#F3E9DC"/>
<circle cx="20.5" cy="22.5" r="0.43" fill="#F3E9DC"/>
<circle cx="21.5" cy="22.5" r="0.43" fill="#F3E9DC"/>
<circle cx="24.5" cy="22.5" r="0.43" fill="#F3E9DC"/>
<circle cx="26.5" cy="22.5" r="0.43" fill="#F3E9DC"/>
<circle cx="28.5" cy="22.5" r="0.43" fill="#F3E9DC"/>
<circle cx="29.5" cy="22.5" r="0.43" fill="#F3E9DC"/>
<circle cx="30.5" cy="22.5" r="0.43" fill="#F3E9DC"/>
<circle cx="34.5" cy="22.5" r="0.43" fill="#F3E9DC"/>
<circle cx="36.5" cy="22.5" r="0.43" fill="#F3E9DC"/>
<circle cx="4.5" cy="23.5" r="0.43" fill="#F3E9DC"/>
<circle cx="6.5" cy="23.5" r="0.43" fill="#F3E9DC"/>
<circle cx="9.5" cy="23.5" r="0.43" fill="#F3E9DC"/>
<circle cx="11.5" cy="23.5" r="0.43" fill="#F3E9DC"/>
<circle cx="14.5" cy="23.5" r="0.43" fill="#F3E9DC"/>
<circle cx="15.5" cy="23.5" r="0.43" fill="#F3E9DC"/>
<circle cx="16.5" cy="23.5" r="0.43" fill="#F3E9DC"/>
<circle cx="22.5" cy="23.5" r="0.43" fill="#F3E9DC"/>
<circle cx="25.5" cy="23.5" r="0.43" fill="#F3E9DC"/>
<circle cx="28.5" cy="23.5" r="0.43" fill="#F3E9DC"/>
<circle cx="31.5" cy="23.5" r="0.43" fill="#F3E9DC"/>
<circle cx="36.5" cy="23.5" r="0.43" fill="#F3E9DC"/>
<circle cx="4.5" cy="24.5" r="0.43" fill="#F3E9DC"/>
<circle cx="5.5" cy="24.5" r="0.43" fill="#F3E9DC"/>
<circle cx="6.5" cy="24.5" r="0.43" fill="#F3E9DC"/>
<circle cx="10.5" cy="24.5" r="0.43" fill="#F3E9DC"/>
<circle cx="13.5" cy="24.5" r="0.43" fill="#F3E9DC"/>
<circle cx="14.5" cy="24.5" r="0.43" fill="#F3E9DC"/>
<circle cx="15.5" cy="24.5" r="0.43" fill="#F3E9DC"/>
<circle cx="17.5" cy="24.5" r="0.43" fill="#F3E9DC"/>
<circle cx="18.5" cy="24.5" r="0.43" fill="#F3E9DC"/>
<circle cx="19.5" cy="24.5" r="0.43" fill="#F3E9DC"/>
<circle cx="20.5" cy="24.5" r="0.43" fill="#F3E9DC"/>
<circle cx="24.5" cy="24.5" r="0.43" fill="#F3E9DC"/>
<circle cx="25.5" cy="24.5" r="0.43" fill="#F3E9DC"/>
<circle cx="27.5" cy="24.5" r="0.43" fill="#F3E9DC"/>
<circle cx="28.5" cy="24.5" r="0.43" fill="#F3E9DC"/>
<circle cx="29.5" cy="24.5" r="0.43" fill="#F3E9DC"/>
<circle cx="6.5" cy="25.5" r="0.43" fill="#F3E9DC"/>
<circle cx="8.5" cy="25.5" r="0.43" fill="#F3E9DC"/>
<circle cx="9.5" cy="25.5" r="0.43" fill="#F3E9DC"/>
<circle cx="12.5" cy="25.5" r="0.43" fill="#F3E9DC"/>
<circle cx="16.5" cy="25.5" r="0.43" fill="#F3E9DC"/>
<circle cx="18.5" cy="25.5" r="0.43" fill="#F3E9DC"/>
<circle cx="19.5" cy="25.5" r="0.43" fill="#F3E9DC"/>
<circle cx="20.5" cy="25.5" r="0.43" fill="#F3E9DC"/>
<circle cx="21.5" cy="25.5" r="0.43" fill="#F3E9DC"/>
<circle cx="22.5" cy="25.5" r="0.43" fill="#F3E9DC"/>
<circle cx="23.5" cy="25.5" r="0.43" fill="#F3E9DC"/>
<circle cx="26.5" cy="25.5" r="0.43" fill="#F3E9DC"/>
<circle cx="28.5" cy="25.5" r="0.43" fill="#F3E9DC"/>
<circle cx="29.5" cy="25.5" r="0.43" fill="#F3E9DC"/>
<circle cx="30.5" cy="25.5" r="0.43" fill="#F3E9DC"/>
<circle cx="34.5" cy="25.5" r="0.43" fill="#F3E9DC"/>
<circle cx="35.5" cy="25.5" r="0.43" fill="#F3E9DC"/>
<circle cx="36.5" cy="25.5" r="0.43" fill="#F3E9DC"/>
<circle cx="4.5" cy="26.5" r="0.43" fill="#F3E9DC"/>
<circle cx="5.5" cy="26.5" r="0.43" fill="#F3E9DC"/>
<circle cx="6.5" cy="26.5" r="0.43" fill="#F3E9DC"/>
<circle cx="7.5" cy="26.5" r="0.43" fill="#F3E9DC"/>
<circle cx="8.5" cy="26.5" r="0.43" fill="#F3E9DC"/>
<circle cx="9.5" cy="26.5" r="0.43" fill="#F3E9DC"/>
<circle cx="10.5" cy="26.5" r="0.43" fill="#F3E9DC"/>
<circle cx="11.5" cy="26.5" r="0.43" fill="#F3E9DC"/>
<circle cx="13.5" cy="26.5" r="0.43" fill="#F3E9DC"/>
<circle cx="14.5" cy="26.5" r="0.43" fill="#F3E9DC"/>
<circle cx="16.5" cy="26.5" r="0.43" fill="#F3E9DC"/>
<circle cx="18.5" cy="26.5" r="0.43" fill="#F3E9DC"/>
<circle cx="23.5" cy="26.5" r="0.43" fill="#F3E9DC"/>
<circle cx="26.5" cy="26.5" r="0.43" fill="#F3E9DC"/>
<circle cx="28.5" cy="26.5" r="0.43" fill="#F3E9DC"/>
<circle cx="30.5" cy="26.5" r="0.43" fill="#F3E9DC"/>
<circle cx="32.5" cy="26.5" r="0.43" fill="#F3E9DC"/>
<circle cx="36.5" cy="26.5" r="0.43" fill="#F3E9DC"/>
<circle cx="5.5" cy="27.5" r="0.43" fill="#F3E9DC"/>
<circle cx="7.5" cy="27.5" r="0.43" fill="#F3E9DC"/>
<circle cx="11.5" cy="27.5" r="0.43" fill="#F3E9DC"/>
<circle cx="13.5" cy="27.5" r="0.43" fill="#F3E9DC"/>
<circle cx="15.5" cy="27.5" r="0.43" fill="#F3E9DC"/>
<circle cx="19.5" cy="27.5" r="0.43" fill="#F3E9DC"/>
<circle cx="20.5" cy="27.5" r="0.43" fill="#F3E9DC"/>
<circle cx="22.5" cy="27.5" r="0.43" fill="#F3E9DC"/>
<circle cx="23.5" cy="27.5" r="0.43" fill="#F3E9DC"/>
<circle cx="24.5" cy="27.5" r="0.43" fill="#F3E9DC"/>
<circle cx="25.5" cy="27.5" r="0.43" fill="#F3E9DC"/>
<circle cx="28.5" cy="27.5" r="0.43" fill="#F3E9DC"/>
<circle cx="29.5" cy="27.5" r="0.43" fill="#F3E9DC"/>
<circle cx="31.5" cy="27.5" r="0.43" fill="#F3E9DC"/>
<circle cx="35.5" cy="27.5" r="0.43" fill="#F3E9DC"/>
<circle cx="36.5" cy="27.5" r="0.43" fill="#F3E9DC"/>
<circle cx="4.5" cy="28.5" r="0.43" fill="#F3E9DC"/>
<circle cx="7.5" cy="28.5" r="0.43" fill="#F3E9DC"/>
<circle cx="9.5" cy="28.5" r="0.43" fill="#F3E9DC"/>
<circle cx="10.5" cy="28.5" r="0.43" fill="#F3E9DC"/>
<circle cx="12.5" cy="28.5" r="0.43" fill="#F3E9DC"/>
<circle cx="19.5" cy="28.5" r="0.43" fill="#F3E9DC"/>
<circle cx="20.5" cy="28.5" r="0.43" fill="#F3E9DC"/>
<circle cx="25.5" cy="28.5" r="0.43" fill="#F3E9DC"/>
<circle cx="27.5" cy="28.5" r="0.43" fill="#F3E9DC"/>
<circle cx="12.5" cy="29.5" r="0.43" fill="#F3E9DC"/>
<circle cx="15.5" cy="29.5" r="0.43" fill="#F3E9DC"/>
<circle cx="20.5" cy="29.5" r="0.43" fill="#F3E9DC"/>
<circle cx="22.5" cy="29.5" r="0.43" fill="#F3E9DC"/>
<circle cx="23.5" cy="29.5" r="0.43" fill="#F3E9DC"/>
<circle cx="24.5" cy="29.5" r="0.43" fill="#F3E9DC"/>
<circle cx="33.5" cy="29.5" r="0.43" fill="#F3E9DC"/>
<circle cx="35.5" cy="29.5" r="0.43" fill="#F3E9DC"/>
<circle cx="36.5" cy="29.5" r="0.43" fill="#F3E9DC"/>
<circle cx="12.5" cy="30.5" r="0.43" fill="#F3E9DC"/>
<circle cx="13.5" cy="30.5" r="0.43" fill="#F3E9DC"/>
<circle cx="14.5" cy="30.5" r="0.43" fill="#F3E9DC"/>
<circle cx="15.5" cy="30.5" r="0.43" fill="#F3E9DC"/>
<circle cx="17.5" cy="30.5" r="0.43" fill="#F3E9DC"/>
<circle cx="19.5" cy="30.5" r="0.43" fill="#F3E9DC"/>
<circle cx="24.5" cy="30.5" r="0.43" fill="#F3E9DC"/>
<circle cx="26.5" cy="30.5" r="0.43" fill="#F3E9DC"/>
<circle cx="33.5" cy="30.5" r="0.43" fill="#F3E9DC"/>
<circle cx="34.5" cy="30.5" r="0.43" fill="#F3E9DC"/>
<circle cx="35.5" cy="30.5" r="0.43" fill="#F3E9DC"/>
<circle cx="12.5" cy="31.5" r="0.43" fill="#F3E9DC"/>
<circle cx="16.5" cy="31.5" r="0.43" fill="#F3E9DC"/>
<circle cx="17.5" cy="31.5" r="0.43" fill="#F3E9DC"/>
<circle cx="18.5" cy="31.5" r="0.43" fill="#F3E9DC"/>
<circle cx="21.5" cy="31.5" r="0.43" fill="#F3E9DC"/>
<circle cx="22.5" cy="31.5" r="0.43" fill="#F3E9DC"/>
<circle cx="24.5" cy="31.5" r="0.43" fill="#F3E9DC"/>
<circle cx="25.5" cy="31.5" r="0.43" fill="#F3E9DC"/>
<circle cx="26.5" cy="31.5" r="0.43" fill="#F3E9DC"/>
<circle cx="14.5" cy="32.5" r="0.43" fill="#F3E9DC"/>
<circle cx="15.5" cy="32.5" r="0.43" fill="#F3E9DC"/>
<circle cx="16.5" cy="32.5" r="0.43" fill="#F3E9DC"/>
<circle cx="18.5" cy="32.5" r="0.43" fill="#F3E9DC"/>
<circle cx="19.5" cy="32.5" r="0.43" fill="#F3E9DC"/>
<circle cx="20.5" cy="32.5" r="0.43" fill="#F3E9DC"/>
<circle cx="21.5" cy="32.5" r="0.43" fill="#F3E9DC"/>
<circle cx="24.5" cy="32.5" r="0.43" fill="#F3E9DC"/>
<circle cx="33.5" cy="32.5" r="0.43" fill="#F3E9DC"/>
<circle cx="36.5" cy="32.5" r="0.43" fill="#F3E9DC"/>
<circle cx="12.5" cy="33.5" r="0.43" fill="#F3E9DC"/>
<circle cx="13.5" cy="33.5" r="0.43" fill="#F3E9DC"/>
<circle cx="15.5" cy="33.5" r="0.43" fill="#F3E9DC"/>
<circle cx="17.5" cy="33.5" r="0.43" fill="#F3E9DC"/>
<circle cx="18.5" cy="33.5" r="0.43" fill="#F3E9DC"/>
<circle cx="23.5" cy="33.5" r="0.43" fill="#F3E9DC"/>
<circle cx="25.5" cy="33.5" r="0.43" fill="#F3E9DC"/>
<circle cx="27.5" cy="33.5" r="0.43" fill="#F3E9DC"/>
<circle cx="30.5" cy="33.5" r="0.43" fill="#F3E9DC"/>
<circle cx="32.5" cy="33.5" r="0.43" fill="#F3E9DC"/>
<circle cx="33.5" cy="33.5" r="0.43" fill="#F3E9DC"/>
<circle cx="34.5" cy="33.5" r="0.43" fill="#F3E9DC"/>
<circle cx="35.5" cy="33.5" r="0.43" fill="#F3E9DC"/>
<circle cx="13.5" cy="34.5" r="0.43" fill="#F3E9DC"/>
<circle cx="14.5" cy="34.5" r="0.43" fill="#F3E9DC"/>
<circle cx="15.5" cy="34.5" r="0.43" fill="#F3E9DC"/>
<circle cx="16.5" cy="34.5" r="0.43" fill="#F3E9DC"/>
<circle cx="17.5" cy="34.5" r="0.43" fill="#F3E9DC"/>
<circle cx="20.5" cy="34.5" r="0.43" fill="#F3E9DC"/>
<circle cx="23.5" cy="34.5" r="0.43" fill="#F3E9DC"/>
<circle cx="24.5" cy="34.5" r="0.43" fill="#F3E9DC"/>
<circle cx="25.5" cy="34.5" r="0.43" fill="#F3E9DC"/>
<circle cx="32.5" cy="34.5" r="0.43" fill="#F3E9DC"/>
<circle cx="33.5" cy="34.5" r="0.43" fill="#F3E9DC"/>
<circle cx="36.5" cy="34.5" r="0.43" fill="#F3E9DC"/>
<circle cx="12.5" cy="35.5" r="0.43" fill="#F3E9DC"/>
<circle cx="18.5" cy="35.5" r="0.43" fill="#F3E9DC"/>
<circle cx="20.5" cy="35.5" r="0.43" fill="#F3E9DC"/>
<circle cx="21.5" cy="35.5" r="0.43" fill="#F3E9DC"/>
<circle cx="23.5" cy="35.5" r="0.43" fill="#F3E9DC"/>
<circle cx="24.5" cy="35.5" r="0.43" fill="#F3E9DC"/>
<circle cx="25.5" cy="35.5" r="0.43" fill="#F3E9DC"/>
<circle cx="26.5" cy="35.5" r="0.43" fill="#F3E9DC"/>
<circle cx="27.5" cy="35.5" r="0.43" fill="#F3E9DC"/>
<circle cx="28.5" cy="35.5" r="0.43" fill="#F3E9DC"/>
<circle cx="30.5" cy="35.5" r="0.43" fill="#F3E9DC"/>
<circle cx="15.5" cy="36.5" r="0.43" fill="#F3E9DC"/>
<circle cx="16.5" cy="36.5" r="0.43" fill="#F3E9DC"/>
<circle cx="23.5" cy="36.5" r="0.43" fill="#F3E9DC"/>
<circle cx="25.5" cy="36.5" r="0.43" fill="#F3E9DC"/>
<circle cx="26.5" cy="36.5" r="0.43" fill="#F3E9DC"/>
<circle cx="28.5" cy="36.5" r="0.43" fill="#F3E9DC"/>
<circle cx="29.5" cy="36.5" r="0.43" fill="#F3E9DC"/>
<circle cx="32.5" cy="36.5" r="0.43" fill="#F3E9DC"/>
<circle cx="33.5" cy="36.5" r="0.43" fill="#F3E9DC"/>
<circle cx="35.5" cy="36.5" r="0.43" fill="#F3E9DC"/>
<path d="M 4.6 4 L 10.4 4 L 11 4.6 L 11 10.4 L 10.4 11 L 4.6 11 L 4 10.4 L 4 4.6 Z M 5.42 5 L 9.58 5 L 10 5.42 L 10 9.58 L 9.58 10 L 5.42 10 L 5 9.58 L 5 5.42 Z" fill="#F3E9DC" fill-rule="evenodd"/>
<path d="M 6.42 6 L 8.58 6 L 9 6.42 L 9 8.58 L 8.58 9 L 6.42 9 L 6 8.58 L 6 6.42 Z" fill="#F3E9DC"/>
<path d="M 4.73 4.55 L 5.27 4.55 L 5.45 4.73 L 5.45 5.27 L 5.27 5.45 L 4.73 5.45 L 4.55 5.27 L 4.55 4.73 Z M 9.73 4.55 L 10.27 4.55 L 10.45 4.73 L 10.45 5.27 L 10.27 5.45 L 9.73 5.45 L 9.55 5.27 L 9.55 4.73 Z M 4.73 9.55 L 5.27 9.55 L 5.45 9.73 L 5.45 10.27 L 5.27 10.45 L 4.73 10.45 L 4.55 10.27 L 4.55 9.73 Z M 9.73 9.55 L 10.27 9.55 L 10.45 9.73 L 10.45 10.27 L 10.27 10.45 L 9.73 10.45 L 9.55 10.27 L 9.55 9.73 Z" fill="#F3E9DC"/>
<path d="M 30.6 4 L 36.4 4 L 37 4.6 L 37 10.4 L 36.4 11 L 30.6 11 L 30 10.4 L 30 4.6 Z M 31.42 5 L 35.58 5 L 36 5.42 L 36 9.58 L 35.58 10 L 31.42 10 L 31 9.58 L 31 5.42 Z" fill="#F3E9DC" fill-rule="evenodd"/>
<path d="M 32.42 6 L 34.58 6 L 35 6.42 L 35 8.58 L 34.58 9 L 32.42 9 L 32 8.58 L 32 6.42 Z" fill="#F3E9DC"/>
<path d="M 30.73 4.55 L 31.27 4.55 L 31.45 4.73 L 31.45 5.27 L 31.27 5.45 L 30.73 5.45 L 30.55 5.27 L 30.55 4.73 Z M 35.73 4.55 L 36.27 4.55 L 36.45 4.73 L 36.45 5.27 L 36.27 5.45 L 35.73 5.45 L 35.55 5.27 L 35.55 4.73 Z M 30.73 9.55 L 31.27 9.55 L 31.45 9.73 L 31.45 10.27 L 31.27 10.45 L 30.73 10.45 L 30.55 10.27 L 30.55 9.73 Z M 35.73 9.55 L 36.27 9.55 L 36.45 9.73 L 36.45 10.27 L 36.27 10.45 L 35.73 10.45 L 35.55 10.27 L 35.55 9.73 Z" fill="#F3E9DC"/>
<path d="M 4.6 30 L 10.4 30 L 11 30.6 L 11 36.4 L 10.4 37 L 4.6 37 L 4 36.4 L 4 30.6 Z M 5.42 31 L 9.58 31 L 10 31.42 L 10 35.58 L 9.58 36 L 5.42 36 L 5 35.58 L 5 31.42 Z" fill="#F3E9DC" fill-rule="evenodd"/>
<path d="M 6.42 32 L 8.58 32 L 9 32.42 L 9 34.58 L 8.58 35 L 6.42 35 L 6 34.58 L 6 32.42 Z" fill="#F3E9DC"/>
<path d="M 4.73 30.55 L 5.27 30.55 L 5.45 30.73 L 5.45 31.27 L 5.27 31.45 L 4.73 31.45 L 4.55 31.27 L 4.55 30.73 Z M 9.73 30.55 L 10.27 30.55 L 10.45 30.73 L 10.45 31.27 L 10.27 31.45 L 9.73 31.45 L 9.55 31.27 L 9.55 30.73 Z M 4.73 35.55 L 5.27 35.55 L 5.45 35.73 L 5.45 36.27 L 5.27 36.45 L 4.73 36.45 L 4.55 36.27 L 4.55 35.73 Z M 9.73 35.55 L 10.27 35.55 L 10.45 35.73 L 10.45 36.27 L 10.27 36.45 L 9.73 36.45 L 9.55 36.27 L 9.55 35.73 Z" fill="#F3E9DC"/>
<path d="M 28.45 28 L 32.55 28 L 33 28.45 L 33 32.55 L 32.55 33 L 28.45 33 L 28 32.55 L 28 28.45 Z M 29.32 29 L 31.68 29 L 32 29.32 L 32 31.68 L 31.68 32 L 29.32 32 L 29 31.68 L 29 29.32 Z" fill="#F3E9DC" fill-rule="evenodd"/>
<path d="M 30.18 30 L 30.82 30 L 31 30.18 L 31 30.82 L 30.82 31 L 30.18 31 L 30 30.82 L 30 30.18 Z" fill="#F3E9DC"/>
</g>
</svg>
